<mxfile host="app.diagrams.net" agent="Mozilla/5.0 (X11; Linux x86_64) AppleWebKit/537.36 (KHTML, like Gecko) Chrome/131.0.0.0 Safari/537.36 OPR/116.0.0.0" version="25.0.3">
  <diagram name="Page-1" id="822b0af5-4adb-64df-f703-e8dfc1f81529">
    <mxGraphModel dx="1971" dy="1154" grid="1" gridSize="10" guides="1" tooltips="1" connect="1" arrows="1" fold="1" page="1" pageScale="1" pageWidth="1100" pageHeight="850" background="none" math="0" shadow="0">
      <root>
        <mxCell id="0" />
        <mxCell id="1" parent="0" />
        <mxCell id="7d933b09d9755ecc-6" value="Users" style="verticalLabelPosition=bottom;aspect=fixed;html=1;verticalAlign=top;strokeColor=none;shape=mxgraph.citrix.users;rounded=0;shadow=0;comic=0;fontFamily=Verdana;" parent="1" vertex="1">
          <mxGeometry x="140" y="255" width="64.5" height="55" as="geometry" />
        </mxCell>
        <mxCell id="7d933b09d9755ecc-9" value="" style="verticalLabelPosition=bottom;aspect=fixed;html=1;verticalAlign=top;strokeColor=none;shape=mxgraph.citrix.tower_server;rounded=0;shadow=0;comic=0;fontFamily=Verdana;" parent="1" vertex="1">
          <mxGeometry x="147.5" y="100" width="65" height="85" as="geometry" />
        </mxCell>
        <mxCell id="7d933b09d9755ecc-21" value="" style="verticalLabelPosition=bottom;aspect=fixed;html=1;verticalAlign=top;strokeColor=none;shape=mxgraph.citrix.tower_server;rounded=0;shadow=0;comic=0;fontFamily=Verdana;" parent="1" vertex="1">
          <mxGeometry x="530" y="100" width="65" height="85" as="geometry" />
        </mxCell>
        <mxCell id="QBq3WC-L4W_NwxsqvDDu-2" value="OPCUA Client" style="text;html=1;align=center;verticalAlign=middle;whiteSpace=wrap;rounded=0;" vertex="1" parent="1">
          <mxGeometry x="145" y="20" width="70" height="37" as="geometry" />
        </mxCell>
        <mxCell id="QBq3WC-L4W_NwxsqvDDu-5" value="OPCUA Server" style="text;html=1;align=center;verticalAlign=middle;whiteSpace=wrap;rounded=0;" vertex="1" parent="1">
          <mxGeometry x="527.5" y="30" width="70" height="37" as="geometry" />
        </mxCell>
        <mxCell id="QBq3WC-L4W_NwxsqvDDu-6" value="" style="shape=flexArrow;endArrow=classic;startArrow=classic;html=1;rounded=0;exitX=1.062;exitY=0.568;exitDx=0;exitDy=0;exitPerimeter=0;entryX=0.029;entryY=0.592;entryDx=0;entryDy=0;entryPerimeter=0;" edge="1" parent="1" source="7d933b09d9755ecc-9" target="7d933b09d9755ecc-21">
          <mxGeometry width="100" height="100" relative="1" as="geometry">
            <mxPoint x="800" y="290" as="sourcePoint" />
            <mxPoint x="900" y="190" as="targetPoint" />
          </mxGeometry>
        </mxCell>
        <mxCell id="QBq3WC-L4W_NwxsqvDDu-7" value="TCP/IP" style="text;html=1;align=center;verticalAlign=middle;whiteSpace=wrap;rounded=0;" vertex="1" parent="1">
          <mxGeometry x="420" y="67" width="70" height="37" as="geometry" />
        </mxCell>
        <mxCell id="QBq3WC-L4W_NwxsqvDDu-8" value="" style="rounded=0;whiteSpace=wrap;html=1;" vertex="1" parent="1">
          <mxGeometry x="390" y="270" width="120" height="60" as="geometry" />
        </mxCell>
        <mxCell id="QBq3WC-L4W_NwxsqvDDu-9" value="" style="rounded=0;whiteSpace=wrap;html=1;" vertex="1" parent="1">
          <mxGeometry x="350" y="300" width="120" height="60" as="geometry" />
        </mxCell>
        <mxCell id="QBq3WC-L4W_NwxsqvDDu-10" value="" style="rounded=0;whiteSpace=wrap;html=1;" vertex="1" parent="1">
          <mxGeometry x="320" y="335" width="120" height="60" as="geometry" />
        </mxCell>
        <mxCell id="QBq3WC-L4W_NwxsqvDDu-11" value="Cabane" style="rounded=0;whiteSpace=wrap;html=1;" vertex="1" parent="1">
          <mxGeometry x="280" y="365" width="120" height="60" as="geometry" />
        </mxCell>
        <mxCell id="QBq3WC-L4W_NwxsqvDDu-12" value="" style="rounded=0;whiteSpace=wrap;html=1;" vertex="1" parent="1">
          <mxGeometry x="680" y="280" width="120" height="60" as="geometry" />
        </mxCell>
        <mxCell id="QBq3WC-L4W_NwxsqvDDu-13" value="" style="rounded=0;whiteSpace=wrap;html=1;" vertex="1" parent="1">
          <mxGeometry x="640" y="310" width="120" height="60" as="geometry" />
        </mxCell>
        <mxCell id="QBq3WC-L4W_NwxsqvDDu-14" value="" style="rounded=0;whiteSpace=wrap;html=1;" vertex="1" parent="1">
          <mxGeometry x="610" y="345" width="120" height="60" as="geometry" />
        </mxCell>
        <mxCell id="QBq3WC-L4W_NwxsqvDDu-15" value="Latournett" style="rounded=0;whiteSpace=wrap;html=1;" vertex="1" parent="1">
          <mxGeometry x="570" y="375" width="120" height="60" as="geometry" />
        </mxCell>
        <mxCell id="QBq3WC-L4W_NwxsqvDDu-16" value="Text" style="text;html=1;align=center;verticalAlign=middle;whiteSpace=wrap;rounded=0;" vertex="1" parent="1">
          <mxGeometry x="300" y="220" width="60" height="30" as="geometry" />
        </mxCell>
        <mxCell id="QBq3WC-L4W_NwxsqvDDu-17" value="" style="shape=flexArrow;endArrow=classic;startArrow=classic;html=1;rounded=0;entryX=0.182;entryY=0.961;entryDx=0;entryDy=0;entryPerimeter=0;" edge="1" parent="1" target="7d933b09d9755ecc-21">
          <mxGeometry width="100" height="100" relative="1" as="geometry">
            <mxPoint x="460" y="260" as="sourcePoint" />
            <mxPoint x="380" y="190" as="targetPoint" />
          </mxGeometry>
        </mxCell>
        <mxCell id="QBq3WC-L4W_NwxsqvDDu-18" value="" style="shape=flexArrow;endArrow=classic;startArrow=classic;html=1;rounded=0;entryX=0.996;entryY=0.945;entryDx=0;entryDy=0;entryPerimeter=0;" edge="1" parent="1" target="7d933b09d9755ecc-21">
          <mxGeometry width="100" height="100" relative="1" as="geometry">
            <mxPoint x="730" y="270" as="sourcePoint" />
            <mxPoint x="552" y="192" as="targetPoint" />
          </mxGeometry>
        </mxCell>
        <mxCell id="QBq3WC-L4W_NwxsqvDDu-19" value="bus i2c" style="text;html=1;align=center;verticalAlign=middle;whiteSpace=wrap;rounded=0;" vertex="1" parent="1">
          <mxGeometry x="537.5" y="220" width="60" height="30" as="geometry" />
        </mxCell>
      </root>
    </mxGraphModel>
  </diagram>
</mxfile>
